<?xml version="1.0" standalone="no"?>
<!DOCTYPE svg PUBLIC "-//W3C//DTD SVG 20010904//EN"
 "http://www.w3.org/TR/2001/REC-SVG-20010904/DTD/svg10.dtd">
<svg version="1.0" xmlns="http://www.w3.org/2000/svg"
 width="1504.000000pt" height="1504.000000pt" viewBox="0 0 1504.000000 1504.000000"
 preserveAspectRatio="xMidYMid meet">
<metadata>
Created by potrace 1.11, written by Peter Selinger 2001-2013
</metadata>
<g transform="translate(0.000000,1504.000000) scale(0.100000,-0.100000)"
fill="#000000" stroke="none">
<path d="M7310 15037 c-5 -5 -109 -14 -260 -22 -173 -10 -316 -21 -390 -30
-19 -3 -64 -7 -100 -10 -36 -4 -76 -8 -90 -10 -14 -2 -43 -6 -65 -9 -22 -3
-74 -11 -115 -17 -41 -6 -84 -12 -95 -14 -11 -2 -47 -8 -80 -15 -33 -6 -71
-13 -85 -15 -14 -2 -56 -11 -95 -20 -38 -9 -86 -18 -105 -21 -19 -4 -42 -10
-50 -14 -8 -4 -31 -11 -50 -14 -29 -5 -176 -42 -240 -61 -8 -2 -31 -9 -50 -14
-131 -34 -548 -171 -645 -211 -330 -138 -558 -244 -704 -327 -308 -176 -815
-505 -986 -640 -6 -4 -37 -28 -70 -53 -67 -49 -257 -200 -265 -210 -3 -3 -18
-16 -35 -29 -26 -19 -110 -94 -204 -179 -190 -172 -431 -412 -556 -552 -32
-36 -74 -83 -94 -105 -20 -22 -57 -65 -81 -95 -25 -30 -53 -63 -64 -75 -10
-11 -30 -36 -45 -55 -14 -19 -31 -41 -38 -47 -36 -39 -257 -343 -356 -491
-263 -392 -507 -841 -664 -1222 -19 -47 -38 -89 -42 -95 -3 -5 -11 -23 -17
-40 -6 -16 -24 -61 -38 -100 -109 -284 -272 -801 -302 -960 -2 -11 -6 -29 -9
-40 -4 -18 -60 -268 -71 -320 -2 -11 -9 -47 -14 -80 -5 -33 -12 -71 -15 -85
-6 -27 -12 -66 -20 -127 -3 -21 -7 -49 -10 -63 -3 -14 -7 -45 -10 -69 -3 -23
-7 -55 -9 -70 -3 -14 -7 -53 -10 -86 -3 -33 -8 -82 -11 -110 -36 -324 -41
-1038 -10 -1300 1 -16 6 -59 9 -95 3 -36 8 -85 11 -110 12 -98 16 -127 21
-175 11 -105 32 -271 40 -320 12 -72 28 -155 39 -205 3 -14 8 -36 11 -50 3
-14 7 -33 10 -42 3 -9 7 -25 9 -35 2 -10 20 -79 39 -153 20 -74 38 -143 41
-153 2 -9 6 -21 9 -25 3 -5 7 -19 9 -33 9 -46 129 -414 171 -523 13 -33 41
-106 61 -161 21 -55 43 -113 50 -130 8 -16 47 -109 89 -206 249 -584 535
-1064 939 -1579 75 -95 282 -344 322 -386 5 -6 53 -57 105 -114 121 -132 320
-331 440 -440 51 -47 98 -90 104 -95 16 -15 168 -146 199 -172 15 -13 73 -59
129 -104 57 -44 111 -87 121 -95 10 -9 42 -32 70 -52 29 -20 54 -39 57 -42 18
-20 268 -190 480 -326 102 -65 223 -145 270 -177 110 -78 248 -148 510 -262
47 -21 99 -43 115 -51 207 -93 691 -266 930 -332 118 -33 229 -63 245 -66 8
-2 26 -6 40 -9 98 -25 416 -95 467 -103 21 -3 45 -7 53 -9 8 -2 29 -6 45 -9
17 -2 50 -8 75 -12 25 -4 54 -8 65 -9 11 -2 56 -8 100 -14 217 -30 355 -36
785 -35 361 0 625 6 790 18 30 3 96 7 145 11 154 11 289 22 350 30 17 2 53 7
80 10 114 15 196 26 220 31 11 3 56 11 100 20 134 25 371 83 552 135 159 45
489 151 558 180 17 7 35 13 40 15 15 3 197 73 220 84 11 5 92 39 180 76 195
81 559 259 715 349 63 37 131 76 150 87 54 31 247 160 325 217 39 28 81 59 94
68 37 27 263 207 289 231 13 11 41 35 62 52 197 161 558 508 785 755 55 60
107 116 115 125 50 53 227 262 305 360 33 41 63 77 66 80 3 3 60 78 126 167
154 206 270 380 376 563 165 284 393 750 530 1080 20 47 47 112 61 146 83 202
232 637 252 737 2 10 6 27 9 37 3 10 8 29 10 42 17 87 25 126 29 148 11 52 16
76 20 105 3 17 14 86 26 155 29 173 31 187 46 305 2 22 7 51 9 65 3 14 7 48
10 75 3 28 7 73 10 100 25 233 30 378 30 865 0 423 -6 669 -20 751 -2 13 -6
51 -10 84 -3 33 -8 80 -11 105 -6 60 -63 420 -70 443 -3 10 -7 30 -9 45 -2 16
-16 82 -30 147 -15 66 -28 126 -30 135 -2 8 -13 53 -25 100 -11 47 -22 92 -25
100 -26 105 -158 524 -184 585 -4 11 -18 45 -29 75 -49 129 -95 247 -107 275
-7 17 -30 68 -50 115 -21 47 -46 105 -57 130 -11 25 -66 137 -123 250 -239
479 -520 916 -874 1360 -63 80 -118 147 -121 150 -4 3 -35 39 -70 80 -166 195
-557 583 -800 795 -281 244 -520 433 -720 571 -118 82 -277 184 -285 184 -3 0
-26 13 -52 29 -111 68 -464 248 -673 343 -486 222 -995 391 -1485 493 -166 35
-189 39 -290 55 -33 5 -73 12 -90 15 -64 11 -92 15 -135 20 -25 3 -58 8 -75
10 -16 2 -57 6 -90 10 -33 3 -73 8 -90 10 -16 2 -70 7 -120 10 -49 3 -115 8
-145 11 -30 3 -75 8 -100 10 -68 7 -705 16 -710 11z m1035 -247 c3 -5 1 -10
-4 -10 -6 0 -11 5 -11 10 0 6 2 10 4 10 3 0 8 -4 11 -10z m230 -21 c39 -5 77
-11 85 -14 8 -2 33 -6 54 -10 22 -3 42 -8 45 -11 6 -6 -10 -4 -244 31 -100 15
-132 22 -85 19 41 -3 107 -9 145 -15z m-2101 -7 c3 -5 -1 -9 -9 -9 -8 0 -12 4
-9 9 3 4 7 8 9 8 2 0 6 -4 9 -8z m-69 -12 c-11 -5 -31 -8 -45 -8 -23 0 -22 1
5 8 42 11 65 11 40 0z m-79 -9 c-3 -4 -27 -11 -53 -15 -27 -4 -64 -9 -83 -12
-19 -3 -32 -3 -29 0 3 3 23 8 45 12 36 6 115 20 122 23 2 1 1 -3 -2 -8z m-176
-29 c0 -5 -27 -13 -60 -18 -33 -6 -60 -7 -60 -4 0 4 26 11 58 17 31 6 58 11
60 12 1 0 2 -3 2 -7z m-133 -28 c-3 -3 -12 -4 -19 -1 -8 3 -5 6 6 6 11 1 17
-2 13 -5z m-38 -8 c-2 -2 -17 -6 -34 -10 -22 -5 -26 -4 -15 4 14 9 59 15 49 6z
m-79 -16 c-8 -5 -24 -9 -35 -9 -16 1 -16 2 5 9 35 11 48 11 30 0z m-103 -26
c-3 -3 -12 -4 -19 -1 -8 3 -5 6 6 6 11 1 17 -2 13 -5z m3487 -3 c4 -5 -3 -7
-14 -4 -23 6 -26 13 -6 13 8 0 17 -4 20 -9z m109 -22 c39 -10 53 -23 15 -15
-61 14 -100 25 -106 31 -7 6 14 3 91 -16z m74 -25 c-3 -3 -12 -4 -19 -1 -8 3
-5 6 6 6 11 1 17 -2 13 -5z m57 -13 c3 -4 -6 -6 -19 -3 -14 2 -25 6 -25 8 0 8
39 4 44 -5z m36 -11 c0 -5 -2 -10 -4 -10 -3 0 -8 5 -11 10 -3 6 -1 10 4 10 6
0 11 -4 11 -10z m-3303 -14256 c-3 -3 -12 -4 -19 -1 -8 3 -5 6 6 6 11 1 17 -2
13 -5z m83 -14 c10 -6 2 -7 -25 -3 -49 7 -58 13 -19 13 16 0 36 -5 44 -10z
m109 -17 c3 -2 -9 -3 -27 -1 -18 1 -32 6 -32 10 0 8 49 0 59 -9z m81 -7 c19
-3 64 -8 100 -11 36 -4 75 -8 88 -10 13 -2 53 -7 90 -10 37 -3 87 -8 112 -10
50 -5 348 -18 423 -19 26 0 47 -4 47 -8 0 -11 -259 -2 -514 18 -44 3 -87 7
-95 9 -9 1 -52 6 -96 11 -44 4 -82 8 -85 9 -3 1 -35 5 -72 9 -37 5 -65 12 -63
17 3 4 11 6 18 4 7 -2 28 -6 47 -9z m966 -69 c4 -4 -16 -7 -45 -7 -29 0 -50 3
-48 8 6 9 84 8 93 -1z m49 3 c18 -8 17 -9 -7 -9 -16 -1 -28 4 -28 9 0 12 8 12
35 0z m105 -1 c0 -4 -13 -6 -30 -5 -16 0 -30 4 -30 7 0 4 14 6 30 5 17 0 30
-4 30 -7z m54 2 c-8 -8 -34 -10 -38 -2 -3 4 6 7 19 7 14 0 22 -2 19 -5z"/>
</g>
</svg>
